<?xml version="1.0" standalone="no"?>
<!DOCTYPE svg PUBLIC "-//W3C//DTD SVG 20010904//EN"
 "http://www.w3.org/TR/2001/REC-SVG-20010904/DTD/svg10.dtd">
<svg version="1.0" xmlns="http://www.w3.org/2000/svg"
 width="504.000000pt" height="504.000000pt" viewBox="0 0 504.000000 504.000000"
 preserveAspectRatio="xMidYMid meet">
<metadata>
Created by potrace 1.11, written by Peter Selinger 2001-2013
</metadata>
<g transform="translate(0.000000,504.000000) scale(0.100000,-0.100000)"
fill="#000000" stroke="none">
<path d="M2422 4847 c-52 -100 -145 -285 -209 -410 -73 -146 -124 -234 -139
-244 -33 -21 -68 -12 -148 37 -37 22 -68 40 -70 40 -2 0 -61 34 -131 75 -71
41 -132 72 -136 70 -4 -3 -3 -20 2 -39 8 -28 21 -92 55 -276 2 -14 20 -104 39
-200 19 -96 37 -191 40 -210 3 -19 10 -53 15 -75 5 -22 11 -53 14 -70 3 -16
15 -77 26 -135 47 -243 59 -321 53 -337 -13 -36 -36 -53 -73 -53 -33 0 -45 8
-107 73 -74 76 -77 79 -237 252 -170 183 -239 255 -245 255 -3 0 -33 -66 -66
-146 -33 -80 -72 -159 -88 -176 -33 -37 -2 -40 -416 48 -167 36 -309 64 -316
62 -12 -3 3 -50 160 -528 64 -193 67 -207 50 -240 -15 -28 -10 -26 -179 -105
-100 -47 -117 -58 -105 -69 8 -8 145 -118 304 -247 160 -128 295 -238 301
-244 6 -5 28 -23 50 -40 21 -16 99 -80 173 -140 75 -61 180 -146 234 -189 104
-83 127 -109 127 -141 0 -11 -33 -111 -74 -223 -81 -224 -82 -210 15 -192 30
6 68 13 84 16 17 2 66 11 110 19 44 8 98 17 120 21 32 5 185 31 390 68 11 2
36 7 55 10 42 7 73 13 166 30 77 14 92 13 134 -4 30 -12 68 -74 64 -105 -1
-11 -5 -85 -9 -165 -4 -80 -8 -166 -10 -192 -2 -25 -6 -108 -10 -185 -3 -76
-8 -165 -10 -198 -2 -33 -6 -123 -10 -201 l-7 -141 112 0 111 -1 -6 137 c-3
75 -7 168 -10 206 -4 65 -8 136 -20 390 -3 55 -7 132 -10 171 -10 160 -8 211
11 243 19 32 76 61 109 55 11 -2 47 -8 80 -13 33 -5 112 -19 175 -30 63 -12
142 -25 175 -31 33 -5 71 -12 85 -15 14 -3 39 -7 55 -10 17 -3 131 -23 255
-45 124 -22 232 -40 241 -40 13 0 7 26 -36 143 -98 270 -100 275 -89 304 9 26
59 69 345 300 63 51 263 213 444 360 182 147 349 282 370 300 l40 31 -118 56
c-65 31 -121 56 -125 56 -16 1 -60 47 -65 68 -3 13 5 56 18 95 146 451 208
644 212 654 3 9 -9 8 -46 -2 -28 -7 -54 -13 -56 -13 -3 0 -18 -3 -33 -6 -15
-4 -36 -8 -47 -10 -11 -2 -67 -14 -125 -26 -58 -12 -112 -23 -120 -25 -8 -2
-71 -15 -140 -29 -69 -15 -135 -24 -147 -21 -13 3 -30 17 -39 31 -18 27 -107
228 -125 282 -6 17 -15 32 -19 32 -5 0 -26 -18 -47 -41 -21 -23 -49 -53 -63
-68 -195 -209 -250 -268 -274 -294 -167 -181 -176 -188 -219 -176 -65 19 -73
52 -44 199 9 47 19 99 22 115 6 32 64 327 71 360 2 11 7 34 10 50 3 17 14 75
24 130 11 55 22 116 25 135 3 19 11 55 16 80 6 25 13 56 15 70 3 14 11 60 20
103 8 42 17 90 20 105 3 15 7 35 10 45 5 16 0 15 -35 -7 -22 -14 -42 -26 -44
-26 -2 0 -78 -43 -168 -96 -90 -52 -176 -98 -191 -101 -51 -10 -71 16 -187
244 -221 438 -306 603 -311 603 -3 0 -47 -82 -98 -183z"/>
</g>
</svg>
